<?xml version="1.0" encoding="UTF-8"?>
<svg xmlns="http://www.w3.org/2000/svg" xmlns:xlink="http://www.w3.org/1999/xlink" width="0" height="0">
   <symbol id="angle-right" width="7" height="10" viewBox="0 0 7 10" fill="none">
      <path d="M1 1L5.95 5L1 9" stroke="#131313" stroke-width="2" stroke-linecap="round" stroke-linejoin="round" />
   </symbol>
   <symbol id="cow" width="36" height="36" viewBox="0 0 36 36" fill="none">
      <path
         d="M6.93937 0.216297C6.64615 0.469917 5.80724 2.21992 5.50588 3.17524C5.14751 4.35881 5.02534 5.24649 5.07421 6.47234C5.13937 8.22233 5.57919 9.54963 6.54842 10.9361C6.80091 11.2996 7.00453 11.6124 7.00453 11.6378C7.00453 11.6547 6.84977 11.6716 6.6543 11.6716C5.81538 11.6716 4.24344 11.9506 3.03801 12.3141C1.12398 12.889 0 13.895 0 15.0194C0 15.4168 0.358371 16.0931 0.741176 16.4397C1.48235 17.1076 3.10317 17.7417 4.84615 18.046C5.44887 18.1559 7.24072 18.3419 7.63982 18.3504C7.71312 18.3504 7.73756 18.7392 7.73756 20.0158C7.73756 21.1148 7.77828 21.9687 7.85973 22.4929C8.15294 24.3697 9.06516 26.3564 10.2706 27.7598L10.686 28.2417L10.409 28.6897C10.0018 29.3238 9.84706 29.8057 9.79819 30.5243C9.67602 32.2489 10.7511 33.7791 12.8281 34.8528C16.7864 36.9071 22.9357 36.104 25.2407 33.2296C26.3647 31.8262 26.495 30.2199 25.6072 28.7658L25.3303 28.3177L25.8272 27.7175C26.7557 26.6016 27.3584 25.4856 27.8145 24.0738C28.1973 22.8733 28.3439 21.7151 28.3439 19.8805C28.3439 19.0436 28.3683 18.3504 28.4091 18.3504C28.7837 18.3419 30.5837 18.1475 31.1538 18.046C32.905 17.7417 34.4932 17.1161 35.2588 16.4397C35.6416 16.0931 36 15.4168 36 15.0194C36 13.7682 34.7294 12.7537 32.3674 12.145C31.5937 11.9421 30.1357 11.697 29.4272 11.6547L29.0932 11.6293L29.4597 11.1221C29.9158 10.5049 30.486 9.30446 30.7059 8.51823C31.3249 6.24407 30.9421 3.59794 29.6145 1.07016C29.0606 0.0218506 28.6778 -0.223316 28.2299 0.190933C28.0588 0.351562 27.9855 0.571369 27.8226 1.36605C27.3176 3.89383 26.381 5.89746 25.0127 7.37692L24.41 8.03634H17.9674H11.5249L10.9873 7.45301C9.65158 5.982 8.68235 3.90229 8.17738 1.36605C8.01448 0.571369 7.94118 0.351562 7.77014 0.190933C7.50136 -0.0542336 7.24072 -0.0457802 6.93937 0.216297ZM7.9819 5.22958C8.41358 6.17644 8.95113 7.06412 9.58643 7.88417L10.0914 8.53514L9.56199 8.93248C9.06516 9.31291 8.60091 9.85398 8.24253 10.4711L8.08778 10.7501L7.69683 10.2175C6.36109 8.37451 6.02715 6.11726 6.73575 3.77547C7.07783 2.64263 7.06968 2.65108 7.37919 3.63176C7.52579 4.10519 7.80272 4.82378 7.9819 5.22958ZM29.1828 3.44577C29.5167 4.45181 29.6471 5.25494 29.6471 6.2948C29.6471 7.83345 29.2398 9.13538 28.3846 10.302L28.0018 10.8262L27.7167 10.3443C27.3828 9.75253 26.8127 9.13538 26.2914 8.78031C26.0715 8.63659 25.9005 8.49287 25.9005 8.47596C25.9005 8.4506 26.0552 8.25615 26.2507 8.0448C27.1548 7.03876 28.124 5.22958 28.6045 3.67403C28.7511 3.19214 28.8977 2.7948 28.9222 2.7948C28.9466 2.7948 29.0688 3.09069 29.1828 3.44577ZM25.0208 9.62572C25.9249 10.0062 26.7882 11.0967 26.9267 12.0182C27 12.5255 27.171 12.8467 27.391 12.8975C27.4887 12.9144 28.1647 12.9735 28.8896 13.0243C31.4634 13.1933 33.4914 13.7429 34.3548 14.4953C34.7538 14.8504 34.7131 15.1462 34.2326 15.5098C33.2715 16.2368 31.1946 16.7863 29.0769 16.8793C27.676 16.9385 27.3828 16.9808 27.1955 17.1752C27.057 17.319 27.0407 17.4711 27.0407 19.0013C27.0407 21.0726 26.9348 22.2646 26.6742 23.2284C26.3077 24.5388 25.5828 25.9337 24.7357 26.9228L24.3855 27.3286L23.6606 26.8974C22.781 26.3733 21.9584 26.0351 20.9729 25.8069C17.886 25.0714 14.4733 25.5194 12.1765 26.9651L11.6471 27.3032L11.3131 26.9059C10.857 26.3733 10.1403 25.232 9.8552 24.5895C9.22806 23.1354 9.04072 21.9518 9.04072 19.3479C9.04072 16.8202 9.17104 17.0061 7.29774 16.9047C4.90317 16.7779 3.07873 16.3467 1.93032 15.6197C1.08326 15.0786 1.22172 14.5967 2.40271 14.0303C3.53484 13.4808 5.0905 13.1511 7.24887 13.0158C8.9267 12.9059 8.96742 12.8805 9.12217 12.069C9.35023 10.8431 10.2543 9.82862 11.3946 9.50736C11.6796 9.42282 13.276 9.40591 18.1629 9.41436L24.5566 9.43127L25.0208 9.62572ZM20.4434 27.1257C22.4389 27.616 23.9294 28.5291 24.5729 29.6619C24.7276 29.924 24.7928 30.1945 24.8253 30.6088C24.8579 31.1245 24.8335 31.2513 24.638 31.674C23.7339 33.5931 20.4109 34.8612 17.0308 34.5738C12.9665 34.2356 10.295 31.9699 11.3457 29.7465C11.9158 28.546 13.8462 27.3962 15.8824 27.0581C16.2163 27.0074 16.5502 26.9482 16.6154 26.9313C16.6805 26.9144 17.4136 26.9144 18.2443 26.9313C19.3765 26.9566 19.9222 27.0074 20.4434 27.1257Z"
         fill="#131313" />
      <path
         d="M12.364 13.8613C11.859 14.0304 11.5169 14.2502 11.0608 14.7067C10.6617 15.0871 10.6291 15.5352 10.9631 15.8057C11.2726 16.0593 11.5658 16.0255 11.9404 15.6958C12.4128 15.2816 12.7793 15.1125 13.2355 15.1125C13.6916 15.104 14.0418 15.2647 14.5305 15.6958C14.9051 16.0255 15.1983 16.0593 15.5079 15.8057C15.6707 15.6705 15.7196 15.5606 15.7196 15.3069C15.7196 15.0449 15.6626 14.9265 15.3775 14.6391C14.5712 13.8275 13.3739 13.5147 12.364 13.8613Z"
         fill="#131313" />
      <path
         d="M21.8606 13.8525C21.3393 14.047 20.6714 14.4866 20.4026 14.8163C20.142 15.1376 20.1339 15.5011 20.4026 15.7716C20.6714 16.0591 20.9972 16.0422 21.3882 15.7209C22.3492 14.9262 23.066 14.9009 23.9538 15.6364C24.1818 15.8308 24.4425 15.983 24.5239 15.983C24.923 15.983 25.2488 15.6279 25.2488 15.2052C25.2488 14.9347 24.5728 14.3091 23.9619 14.0132C23.2859 13.6835 22.4796 13.6243 21.8606 13.8525Z"
         fill="#131313" />
      <path
         d="M13.5448 29.5016C13.3086 29.7298 13.2272 30.0595 13.3493 30.3216C13.4389 30.533 13.5774 30.6175 14.1394 30.7697C14.3919 30.8373 14.4978 30.9218 14.5874 31.1332C14.7014 31.4122 14.7095 31.4122 15.3367 31.4375L15.9638 31.4629V31.2262C15.9557 30.888 15.7683 30.3977 15.524 30.0595C15.2389 29.6706 14.7421 29.417 14.1801 29.3663C13.7973 29.3325 13.6996 29.3494 13.5448 29.5016Z"
         fill="#131313" />
      <path
         d="M21.3233 29.4419C20.916 29.5518 20.3296 30.1013 20.1667 30.5325C20.0934 30.7269 20.0201 31.0735 20.012 31.3018C19.9957 31.6653 20.0282 31.7499 20.2237 31.9274C20.7043 32.3501 21.3396 32.0204 21.3396 31.3441C21.3396 31.0143 21.5839 30.7861 22.0156 30.7015C22.4717 30.617 22.6346 30.431 22.6427 29.9999C22.6427 29.4334 22.1377 29.2136 21.3233 29.4419Z"
         fill="#131313" />
   </symbol>
   <symbol id="cursor" width="19" height="24" viewBox="0 0 19 24" fill="none">
      <path
         d="M6.04696 2.01171L16.9811 12.2169C18.8522 13.9633 17.8177 17.1 15.2748 17.3907L11.1573 17.8612C10.124 17.9793 9.15329 18.4167 8.38025 19.1124L6.0069 21.2484C4.07633 22.9859 1 21.6159 1 19.0186V4.20487C1 1.58174 4.12929 0.221893 6.04696 2.01171Z"
         stroke="#131313" stroke-width="2" />
   </symbol>
   <symbol id="default-arrow" width="41" height="16" viewBox="0 0 41 16" fill="none">
      <path
         d="M40.7071 8.70711C41.0976 8.31658 41.0976 7.68342 40.7071 7.29289L34.3431 0.928932C33.9526 0.538408 33.3195 0.538408 32.9289 0.928932C32.5384 1.31946 32.5384 1.95262 32.9289 2.34315L38.5858 8L32.9289 13.6569C32.5384 14.0474 32.5384 14.6805 32.9289 15.0711C33.3195 15.4616 33.9526 15.4616 34.3431 15.0711L40.7071 8.70711ZM0 9H40V7H0V9Z"
         fill="#131313" />
   </symbol>
   <symbol id="facebook" width="34" height="34" viewBox="0 0 34 34" fill="none">
      <g clip-path="url(#clip0_105_10822)">
         <path
            d="M17 34C26.3888 34 34 26.3888 34 17C34 7.61116 26.3888 0 17 0C7.61116 0 0 7.61116 0 17C0 26.3888 7.61116 34 17 34Z"
            fill="#F8D24E" />
         <path
            d="M21.7235 16.9804H18.9502V27.2001H14.7484V16.9804H12.75V13.3888H14.7484V11.0646C14.7484 9.40261 15.5333 6.80005 18.9876 6.80005L22.1 6.81315V10.2994H19.8417C19.4713 10.2994 18.9505 10.4856 18.9505 11.2784V13.3922H22.0906L21.7235 16.9804Z"
            fill="#84A178" />
      </g>
      <defs>
         <clipPath>
            <rect width="34" height="34" fill="white" />
         </clipPath>
      </defs>
   </symbol>
   <symbol id="focus-arrow" width="52" height="24" viewBox="0 0 52 24" fill="none">
      <path
         d="M51.0607 13.0607C51.6464 12.4749 51.6464 11.5251 51.0607 10.9393L41.5147 1.3934C40.9289 0.807611 39.9792 0.807611 39.3934 1.3934C38.8076 1.97919 38.8076 2.92893 39.3934 3.51472L47.8787 12L39.3934 20.4853C38.8076 21.0711 38.8076 22.0208 39.3934 22.6066C39.9792 23.1924 40.9289 23.1924 41.5147 22.6066L51.0607 13.0607ZM0 13.5H50V10.5H0V13.5Z"
         fill="#131313" />
   </symbol>
   <symbol id="github" width="34" height="34" viewBox="0 0 34 34" fill="none">
      <circle cx="17" cy="17" r="17" fill="#F8D24E" />
      <path
         d="M17 7C11.5074 7 7 11.5074 7 17C7 21.687 10.2889 25.9447 14.6562 27V23.6916C14.2235 23.7863 13.8253 23.7891 13.3847 23.6592C12.7938 23.4848 12.3136 23.0912 11.9571 22.4909C11.7299 22.1076 11.3272 21.6919 10.9072 21.7224L10.8042 20.5551C11.7125 20.4773 12.4984 21.1086 12.9648 21.8923C13.172 22.2408 13.4105 22.4451 13.7166 22.5354C14.0125 22.6226 14.3302 22.5807 14.7003 22.45C14.7933 21.7089 15.1328 21.4315 15.3893 21.0408V21.0402C12.7846 20.6517 11.7466 19.2699 11.3346 18.1792C10.7886 16.731 11.0816 14.9218 12.047 13.7784C12.0658 13.7561 12.0996 13.6978 12.0865 13.6571C11.6439 12.32 12.1833 11.2139 12.2031 11.0965C12.714 11.2476 12.797 10.9445 14.4222 11.9319L14.7031 12.1007C14.8206 12.1707 14.7837 12.1308 14.9012 12.1219C15.5797 11.9376 16.295 11.8358 16.9998 11.8267C17.71 11.8358 18.4207 11.9376 19.1274 12.1294L19.2183 12.1385C19.2104 12.1373 19.243 12.1328 19.2978 12.1001C21.328 10.8704 21.2551 11.2723 21.7995 11.0953C21.8192 11.2128 22.3514 12.3369 21.9135 13.6571C21.8544 13.839 23.6736 15.5048 22.6653 18.1787C22.2533 19.2699 21.2154 20.6517 18.6107 21.0402V21.0408C18.9446 21.5497 19.3457 21.8204 19.3436 22.8702V27C23.7111 25.9447 26.9998 21.687 26.9998 17C27 11.5074 22.4926 7 17 7V7Z"
         fill="#84A178" />
   </symbol>
   <symbol id="hover-arrow" width="51" height="16" viewBox="0 0 51 16" fill="none">
      <path
         d="M50.7071 8.70711C51.0976 8.31658 51.0976 7.68342 50.7071 7.29289L44.3431 0.928932C43.9526 0.538408 43.3195 0.538408 42.9289 0.928932C42.5384 1.31946 42.5384 1.95262 42.9289 2.34315L48.5858 8L42.9289 13.6569C42.5384 14.0474 42.5384 14.6805 42.9289 15.0711C43.3195 15.4616 43.9526 15.4616 44.3431 15.0711L50.7071 8.70711ZM0 9H50V7H0V9Z"
         fill="#131313" />
   </symbol>
   <symbol id="icecream" width="18" height="36" viewBox="0 0 18 36" fill="none">
      <path
         d="M9.1219 0.120502C9.21227 0.361507 9.39303 1.52887 9.39303 1.89038C9.39303 2.78661 9.06165 3.62259 8.4516 4.27782C7.947 4.82008 7.4424 5.12134 6.22985 5.61088C4.88173 6.16067 4.32441 6.49205 3.69177 7.11716C3.0516 7.75732 2.67504 8.45774 2.53947 9.27866C2.38884 10.1749 2.53947 10.8075 2.99888 11.169L3.23236 11.3498L2.86332 11.5833C2.11771 12.0728 0.762065 13.2251 0.528592 13.5791C0.0767091 14.2569 0.121897 14.8895 0.634031 15.1456L0.875035 15.2661L0.603906 15.5222C0.197211 15.9063 0.114366 16.1699 0.174617 16.8628C0.212274 17.3222 0.197211 17.5707 0.0917718 17.9473C-0.0362616 18.4368 -0.0362616 18.4444 0.129429 18.7908C0.295119 19.1297 0.762065 19.559 1.18382 19.7397C1.38717 19.8301 1.3947 19.8603 1.43989 20.5531C1.46248 20.9523 1.50014 22.2251 1.53027 23.3849C1.55286 24.5448 1.60558 25.6067 1.65077 25.7347C1.68842 25.8703 1.83152 26.051 1.95955 26.1414C2.39637 26.4427 2.69763 26.7665 2.89345 27.1431C3.11186 27.5724 3.35286 28.6268 4.0834 32.272L4.59554 34.8326L4.91186 35.1339C5.51437 35.7289 6.66667 36 8.56458 36C10.47 36 11.6073 35.7364 12.2098 35.1414L12.5336 34.8326L13.0006 32.4603C14.0324 27.2711 14.1227 26.9849 14.9286 26.3448C15.1771 26.1414 15.4181 25.8929 15.4633 25.7799C15.516 25.6519 15.5688 24.6653 15.6064 23.1741C15.6365 21.8485 15.6817 20.5381 15.7119 20.2594L15.757 19.7548L16.2466 19.3858C16.8642 18.9113 17.1052 18.482 17.1052 17.8192C17.0976 17.036 16.5855 16.1774 15.6516 15.4092L15.2073 15.0477L15.4257 14.7389C16.337 13.4812 15.7646 11.7414 14.07 10.5816L13.5579 10.2276L13.7462 10.0318C14.5821 9.13556 14.7177 6.46193 14.0173 4.60167C13.5955 3.49456 12.6315 2.28954 11.4491 1.40084C10.8692 0.964016 9.27252 0 9.12943 0C9.0993 0 9.0993 0.0527191 9.1219 0.120502ZM11.2909 2.74895C11.6901 3.14059 12.1721 3.67531 12.3604 3.94644C13.4826 5.51297 13.7688 7.47866 13.0909 8.92469C12.8198 9.51213 12.0064 10.3858 11.2533 10.9054C10.101 11.7038 7.51018 13.0444 5.70265 13.7824C2.79554 14.9649 1.10851 15.1908 0.912692 14.4151C0.837379 14.1213 1.05579 13.8879 1.98215 13.2703C2.81813 12.6979 6.56876 9.9113 6.63654 9.79833C6.65914 9.7682 6.27503 9.94142 5.79303 10.1824C4.15872 11.0109 3.38299 10.8527 3.42064 9.70042C3.44324 8.86444 4.04575 7.91548 4.88173 7.37322C5.09261 7.23766 5.74784 6.9364 6.35035 6.6954C8.3311 5.89707 8.93361 5.49038 9.60391 4.4887C10.0031 3.89372 10.4399 2.79414 10.47 2.3272C10.4775 2.16151 10.5077 2.03347 10.5303 2.03347C10.5529 2.03347 10.8918 2.35732 11.2909 2.74895ZM13.347 11.3046C13.8968 11.6134 14.4692 12.1406 14.7177 12.5548C15.1545 13.3004 14.9286 14.046 13.9872 14.995C12.9629 16.0343 11.2156 17.0285 9.29512 17.6611C7.52524 18.241 5.83068 18.5121 3.40558 18.595L1.8993 18.6477L2.87838 18.708C4.14365 18.7908 6.59135 18.7155 7.54031 18.5649C10.0633 18.1657 12.2098 17.3674 13.7462 16.2678C14.0926 16.0192 14.4541 15.8159 14.552 15.8159C14.8006 15.8159 15.8851 16.8552 16.1035 17.292C16.224 17.5406 16.2541 17.7213 16.2315 17.9623C16.1185 18.964 14.8985 19.4987 11.9537 19.8527C8.3537 20.282 3.64658 19.8603 1.6357 18.9339C0.686751 18.4971 0.528592 18.2485 0.769596 17.5858C0.84491 17.3749 0.859973 17.1264 0.829847 16.7724C0.79219 16.3054 0.799722 16.2452 0.965412 16.072C1.34198 15.6653 1.97462 15.4318 4.29428 14.8444C5.10767 14.6335 6.21478 14.3021 6.74198 14.1063C8.02232 13.6393 10.4248 12.4268 11.5395 11.6812C12.5863 10.9883 12.737 10.9582 13.347 11.3046ZM3.34533 20.523C4.92692 20.9824 6.32775 21.118 8.93361 21.0653C10.8918 21.0276 12.0968 20.9071 13.8365 20.5983C14.1905 20.5381 14.4993 20.4854 14.537 20.4854C14.6198 20.4854 14.5972 23.3774 14.5068 24.1381C14.4089 24.9439 14.1905 25.569 13.957 25.7197C13.716 25.8778 12.511 26.0435 10.8993 26.1339C7.59303 26.3146 4.19637 26.1339 3.14198 25.7121C2.5696 25.4787 2.50935 25.1774 2.50181 22.3833C2.50181 20.523 2.51688 20.2669 2.61478 20.3046C2.67504 20.3272 3.00642 20.4251 3.34533 20.523ZM5.13027 26.9247C5.67252 26.9925 6.25997 27.0603 6.44073 27.0828L6.76457 27.1205L6.47838 27.4368C6.10934 27.836 5.54449 28.6343 5.34114 29.041C5.10767 29.5079 5.03236 29.5381 4.68591 29.3498L4.39219 29.1841L4.2265 28.1598C4.13612 27.6025 4.03822 27.0678 4.01562 26.9774C3.94784 26.7816 3.88006 26.7816 5.13027 26.9247ZM13.1587 26.8418C13.1587 26.8569 13.1211 27.0527 13.0834 27.2711C13.0382 27.4971 12.8499 28.7247 12.6616 30.005C12.2775 32.6787 12.0215 33.9364 11.788 34.3582C11.4642 34.923 10.6884 35.2544 9.43068 35.3598C8.94114 35.3975 7.46499 35.2996 7.38215 35.2243C7.3219 35.1565 8.61729 33.5523 8.82064 33.4469C9.00893 33.3414 9.06165 33.3565 9.70181 33.6879C10.4474 34.0795 10.824 34.1397 10.824 33.8912C10.824 33.6427 10.6282 33.4017 10.1462 33.0703C9.70181 32.754 9.54365 32.5732 9.54365 32.3623C9.54365 32.3021 9.76206 31.9632 10.0257 31.6092C10.2893 31.2552 10.6734 30.6904 10.8692 30.3515L11.2382 29.7414L11.5771 29.7866C12.2625 29.8845 12.4432 29.877 12.4206 29.7264C12.4056 29.651 12.2775 29.4326 12.1344 29.2519C11.9914 29.0636 11.8784 28.8753 11.8784 28.8377C11.8784 28.6946 12.5788 27.3766 12.8047 27.0979C13.0006 26.8569 13.1587 26.7364 13.1587 26.8418ZM8.4516 27.4444C8.82817 27.6929 10.2441 28.9205 10.3344 29.0711C10.3721 29.1389 8.91855 31.4134 8.63236 31.7372C8.60223 31.7749 8.44407 31.6996 8.28591 31.5791C8.12776 31.451 7.54031 31.0444 6.97545 30.6753L5.95872 30.005L6.56876 28.9732C7.65328 27.1582 7.63068 27.1883 7.86416 27.1883C7.98466 27.1883 8.24826 27.3013 8.4516 27.4444ZM11.306 27.7155C11.0424 28.0393 10.824 28.2427 10.7336 28.2427C10.5378 28.2427 10.2215 28.0695 9.68675 27.6778L9.2424 27.354L10.1311 27.3013C10.6131 27.2787 11.0801 27.2485 11.1629 27.2335C11.7654 27.1356 11.7654 27.1431 11.306 27.7155ZM5.61227 31.3381C6.30516 31.6092 7.48006 32.2494 7.81897 32.5356C8.05997 32.7314 8.05997 32.7464 7.96206 32.9874C7.90181 33.123 7.69847 33.4845 7.49512 33.7933C7.2993 34.0946 7.07336 34.4711 6.99052 34.6293C6.74951 35.0962 6.6742 35.1339 6.17713 34.9983C5.6424 34.8402 5.35621 34.569 5.20558 34.0795C5.00223 33.3941 4.67838 31.4586 4.71604 31.1573C4.7311 31.0444 5.04742 31.1121 5.61227 31.3381Z"
         fill="black" />
   </symbol>
   <symbol id="kettleball" width="29" height="36" viewBox="0 0 29 36" fill="none">
      <path
         d="M11.9495 0.615261C7.47847 1.27831 3.79691 3.76068 2.4423 7.0112C2.01016 8.03811 1.89381 8.66881 1.89381 9.90595C1.90212 10.8197 1.93536 11.1593 2.07664 11.6525C2.36751 12.6228 2.57527 13.1161 3.00742 13.8114L3.40632 14.4583L2.95755 15.0082C-0.591032 19.423 -0.981625 25.633 1.97691 30.525C3.08221 32.3605 4.88559 34.1636 6.64742 35.2148L7.17098 35.5221L14.3346 35.4655L21.5066 35.4008L21.8473 35.2148C23.0357 34.5437 24.7144 33.0478 25.6535 31.8349C27.0663 29.9913 27.9888 27.8405 28.3794 25.5117C28.5123 24.6789 28.5123 22.2127 28.3711 21.4284C27.9472 19.0107 27.0414 16.9407 25.612 15.1052C25.3377 14.7575 25.1217 14.4664 25.1217 14.4421C25.1217 14.426 25.2712 14.1753 25.4458 13.8923C25.853 13.2454 26.2186 12.4126 26.4181 11.6849C26.6425 10.8763 26.6425 8.85479 26.4181 8.0462C25.6203 5.17571 23.2269 2.78228 19.8445 1.46428C18.8971 1.09233 17.2765 0.696121 16.2294 0.566746C15.2571 0.453545 12.8554 0.477802 11.9495 0.615261ZM17.0106 1.93326C21.4484 2.79845 24.6978 5.51531 25.2962 8.86287C25.4291 9.61486 25.346 10.8924 25.1217 11.604C24.8973 12.2994 24.4818 13.1161 23.9914 13.8114C23.792 14.0944 23.6258 14.4179 23.6258 14.523C23.6258 14.6281 23.8003 14.903 24.0496 15.178C26.1272 17.4824 27.2242 20.3691 27.2242 23.4903C27.2159 27.04 25.853 30.153 23.2269 32.595C22.7781 33.0154 22.1382 33.541 21.7975 33.7674L21.1742 34.1879L14.3014 34.2121L7.43691 34.2445L6.90504 33.9049C4.977 32.6516 3.24011 30.5816 2.27609 28.3822C1.06276 25.6007 0.938101 22.3744 1.92705 19.4797C2.45061 17.9757 3.14869 16.7466 4.21244 15.4529C4.64458 14.9354 4.84404 14.6281 4.84404 14.4826C4.84404 14.3613 4.62796 13.9651 4.34541 13.5527C3.34815 12.1053 2.94093 10.4962 3.18194 8.97608C3.43125 7.43976 4.12933 6.17836 5.41746 4.92504C7.09618 3.29978 9.43974 2.22435 12.1905 1.82006C13.3291 1.65026 15.8471 1.71494 17.0106 1.93326Z"
         fill="#131313" />
      <path
         d="M12.3233 3.35635C8.91603 3.91428 6.24836 5.80638 5.37576 8.28875C5.17631 8.84668 5.14307 9.065 5.14307 9.8655C5.14307 10.666 5.17631 10.8843 5.37576 11.4422C5.50042 11.798 5.73311 12.2913 5.89101 12.5419C6.32316 13.2373 6.5143 13.2616 7.37028 12.7441C8.6501 11.9597 10.1211 11.3856 11.6502 11.0703C12.6807 10.8601 14.6586 10.7792 15.7805 10.9086C17.534 11.1107 19.4371 11.7414 20.9579 12.639C21.3901 12.8896 21.8306 13.0999 21.9386 13.0999C22.5702 13.0999 23.3763 11.2805 23.3763 9.8655C23.3763 6.72009 20.3679 4.02748 16.1046 3.35635C15.1988 3.21081 13.1959 3.21081 12.3233 3.35635ZM16.437 4.6501C17.8664 4.95736 19.1795 5.53955 20.1685 6.30771C21.4981 7.33461 22.2128 8.76582 22.0965 10.1485C22.0549 10.6983 21.8472 11.4422 21.7225 11.5231C21.6893 11.5393 21.2239 11.3452 20.692 11.0865C19.5867 10.5528 18.3318 10.1242 17.0603 9.84933C16.2874 9.68761 15.9633 9.66335 14.2348 9.67144C12.5311 9.67144 12.1737 9.6957 11.4341 9.84933C10.1543 10.1242 9.15704 10.4639 7.92708 11.046C6.68882 11.6363 6.7553 11.6444 6.53092 10.9167C6.24005 9.97062 6.42288 8.7173 6.988 7.77125C7.28718 7.26993 8.10992 6.43708 8.70827 6.0247C9.84681 5.24037 10.8441 4.88459 12.9882 4.49646C13.4286 4.41561 15.8719 4.52881 16.437 4.6501Z"
         fill="#131313" />
      <path
         d="M15.0827 15.0808C14.85 15.3719 14.85 15.6468 15.091 15.8813C15.2489 16.0349 15.4068 16.0754 15.9802 16.1158C17.0938 16.1967 18.1576 16.5201 19.1133 17.0699C19.7947 17.4742 20.8335 18.4526 21.2989 19.1561C21.9887 20.1668 22.4624 21.6142 22.4624 22.6815C22.4624 23.0535 22.4956 23.1667 22.6702 23.3284C22.9361 23.5953 23.2851 23.5953 23.5428 23.3284C23.7256 23.1424 23.7339 23.0939 23.684 22.3015C23.4513 18.3879 20.1022 15.1212 16.0966 14.9029L15.2655 14.8544L15.0827 15.0808Z"
         fill="#131313" />
   </symbol>
   <symbol id="logo" width="60" height="65" viewBox="0 0 60 65" fill="none">
      <path
         d="M30.9285 34.6984C33.802 27.0114 27.8514 22.8036 23.907 20.0381C23.1528 19.4731 22.3986 18.9453 21.7877 18.4621C20.6959 17.554 19.8916 16.3559 19.4705 15.0103C19.0493 13.6648 19.029 12.2283 19.412 10.8717C19.4513 10.7298 19.4503 10.5799 19.4091 10.4385C19.3679 10.2971 19.2881 10.1695 19.1784 10.0698C19.0686 9.97004 18.9332 9.90195 18.7869 9.87294C18.6405 9.84393 18.4889 9.85511 18.3486 9.90528C17.0202 10.4233 15.7851 11.1488 14.6907 12.0538C13.6392 12.8529 12.7873 13.8788 12.2003 15.0527C11.6133 16.2267 11.3068 17.5175 11.3044 18.8263C10.5606 19.4043 9.90308 20.0825 9.35102 20.841C8.33683 22.2057 7.82834 23.872 7.9105 25.5617C6.70244 26.6555 5.8027 28.0393 5.29908 29.5781C4.79546 31.1169 4.70516 32.7581 5.03702 34.3415C4.55642 34.6278 4.18442 35.0616 3.97814 35.5764C3.77185 36.0912 3.74269 36.6585 3.89514 37.1912C4.04759 37.7239 4.37323 38.1925 4.82203 38.5252C5.27082 38.8578 5.81798 39.036 6.37949 39.0325H6.43228V43.4038C6.43228 43.8474 6.61106 44.2729 6.9293 44.5866C7.24753 44.9003 7.67917 45.0765 8.12922 45.0765H9.44906L11.5985 63.439C11.6432 63.8478 11.8397 64.2258 12.1502 64.5003C12.4607 64.7748 12.8633 64.9264 13.2804 64.9258H22.2251C22.6426 64.9249 23.0452 64.7731 23.3566 64.499C23.668 64.2249 23.8665 63.8478 23.9145 63.439L26.064 45.0765H27.3838C27.8339 45.0765 28.2655 44.9003 28.5837 44.5866C28.902 44.2729 29.0808 43.8474 29.0808 43.4038V39.0325H29.1336C29.8156 39.0325 30.4698 38.7654 30.9521 38.29C31.4344 37.8146 31.7053 37.1698 31.7053 36.4974C31.7088 36.1619 31.6438 35.8291 31.5142 35.5187C31.3847 35.2084 31.1932 34.9269 30.9511 34.6909L30.9285 34.6984ZM11.5684 20.7518C12.6544 24.7737 16.8477 26.3572 20.6715 27.7697C20.7743 27.8321 20.8898 27.8713 21.0097 27.8848C21.1297 27.8982 21.2511 27.8854 21.3655 27.8473C21.4798 27.8092 21.5843 27.7468 21.6714 27.6644C21.7585 27.5821 21.8262 27.4818 21.8696 27.3707C21.9129 27.2597 21.931 27.1406 21.9224 27.0219C21.9138 26.9032 21.8788 26.7879 21.8198 26.684C21.7609 26.5802 21.6795 26.4904 21.5814 26.421C21.4833 26.3517 21.3709 26.3045 21.2522 26.2828C17.1343 24.744 13.2502 23.3092 12.9561 19.198C12.8871 18.0679 13.1023 16.9386 13.5826 15.9101C14.0628 14.8817 14.7932 13.9861 15.7089 13.3027C16.2826 12.8322 16.8985 12.4142 17.5491 12.0538C17.5072 12.5684 17.5072 13.0855 17.5491 13.6001C17.6364 14.7781 17.9631 15.9269 18.5099 16.978C19.0567 18.0291 19.8123 18.961 20.7318 19.7184C21.3578 20.2463 22.1346 20.789 22.9944 21.3688C24.9779 22.7739 27.233 24.3425 28.6659 26.4687C29.4305 27.5591 29.9062 28.8207 30.0498 30.1386C30.1934 31.4565 30.0002 32.7889 29.488 34.0144H29.1713H26.1545C19.2838 34.0144 11.3873 32.141 9.82616 26.8924C9.51646 25.8127 9.51899 24.6691 9.83348 23.5906C10.148 22.5122 10.7619 21.5418 11.6061 20.789L11.5684 20.7518ZM17.7527 46.095L20.2718 48.578L17.7527 51.0611L15.2337 48.5632L17.7527 46.095ZM23.5299 52.6148L21.4483 54.6667L18.9293 52.1836L21.4483 49.708L23.6355 51.8565L23.5299 52.6148ZM17.7527 58.3094L15.2337 55.8264L17.7527 53.3433L20.2718 55.8264L17.7527 58.3094ZM16.5988 52.1985L14.0798 54.6815L11.9831 52.6148L11.8926 51.8714L14.0798 49.7229L16.5988 52.1985ZM12.9184 55.8264L12.413 56.3245L12.2848 55.1945L12.9184 55.8264ZM12.6544 58.3689L14.0798 56.9638L16.8477 59.7145C16.8619 59.77 16.8795 59.8246 16.9005 59.878H12.8278L12.6544 58.3689ZM21.4332 56.9638L22.8587 58.3689L22.6852 59.8557H18.4994L21.4332 56.9638ZM23.0924 56.3245L22.5871 55.8264L23.2282 55.1945L23.0924 56.3245ZM23.8466 49.827L22.5871 48.5632L24.186 46.9871L23.8466 49.827ZM21.4257 47.4332L19.0349 45.084H23.8165L21.4257 47.4332ZM14.0723 47.4332L11.6815 45.084H16.4631L14.0723 47.4332ZM22.2176 63.3126H13.2804C13.2669 63.3111 13.2544 63.3051 13.2448 63.2956C13.2353 63.2862 13.2292 63.2738 13.2276 63.2606L13.0164 61.4764H22.4891L22.2855 63.2606C22.2836 63.275 22.2764 63.2883 22.2653 63.2979C22.2542 63.3075 22.2399 63.3127 22.2251 63.3126H22.2176ZM29.1336 37.4118H26.509C26.3949 37.401 26.2798 37.4139 26.171 37.4495C26.0623 37.4851 25.9623 37.5427 25.8775 37.6187C25.7927 37.6946 25.7249 37.7872 25.6786 37.8905C25.6322 37.9938 25.6082 38.1055 25.6082 38.2185C25.6082 38.3314 25.6322 38.4431 25.6786 38.5464C25.7249 38.6497 25.7927 38.7423 25.8775 38.8182C25.9623 38.8942 26.0623 38.9518 26.171 38.9874C26.2798 39.0231 26.3949 39.0359 26.509 39.0251H27.4441V43.3964C27.4423 43.4108 27.4352 43.4241 27.424 43.4337C27.4129 43.4433 27.3986 43.4485 27.3838 43.4484H8.09905C8.08427 43.4485 8.06996 43.4433 8.05884 43.4337C8.04772 43.4241 8.04057 43.4108 8.03872 43.3964V39.0251H22.9793C23.1828 39.0058 23.3717 38.9125 23.5091 38.7633C23.6466 38.6142 23.7227 38.42 23.7227 38.2185C23.7227 38.017 23.6466 37.8227 23.5091 37.6736C23.3717 37.5244 23.1828 37.4311 22.9793 37.4118H6.38703C6.25767 37.4233 6.1273 37.4081 6.00423 37.3672C5.88116 37.3263 5.76807 37.2605 5.6722 37.1742C5.57632 37.0878 5.49976 36.9827 5.44738 36.8655C5.39499 36.7484 5.36792 36.6218 5.36792 36.4937C5.36792 36.3657 5.39499 36.2391 5.44738 36.1219C5.49976 36.0048 5.57632 35.8996 5.6722 35.8133C5.76807 35.7269 5.88116 35.6612 6.00423 35.6202C6.1273 35.5793 6.25767 35.5641 6.38703 35.5756H8.09905C8.30252 35.5563 8.49141 35.463 8.62886 35.3139C8.76631 35.1647 8.84247 34.9705 8.84247 34.769C8.84247 34.5675 8.76631 34.3732 8.62886 34.2241C8.49141 34.075 8.30252 33.9817 8.09905 33.9624H6.59066C6.37462 32.8312 6.40972 31.6674 6.69354 30.5509C6.97736 29.4344 7.50317 28.3917 8.2348 27.4946C8.76273 29.1153 10.1203 31.3307 13.5142 33.0926C16.7044 34.7355 20.9279 35.5756 26.064 35.5756H29.0808C29.2101 35.5641 29.3405 35.5793 29.4636 35.6202C29.5866 35.6612 29.6997 35.7269 29.7956 35.8133C29.8914 35.8996 29.968 36.0048 30.0204 36.1219C30.0728 36.2391 30.0998 36.3657 30.0998 36.4937C30.0998 36.6218 30.0728 36.7484 30.0204 36.8655C29.968 36.9827 29.8914 37.0878 29.7956 37.1742C29.6997 37.2605 29.5866 37.3263 29.4636 37.3672C29.3405 37.4081 29.2101 37.4233 29.0808 37.4118H29.1336Z"
         fill="#F8D24E" />
      <path
         d="M34.4585 59.2145L33.8644 60.1261L33.8763 60.1337L34.4585 59.2145ZM40.8546 59.5226L41.9423 59.4985L41.9143 58.2393L40.6726 58.45L40.8546 59.5226ZM40.929 62.8694L41.2059 63.9216L42.0358 63.7032L42.0167 62.8453L40.929 62.8694ZM32.5354 63.0288L32.7795 61.9686L32.7729 61.9671L32.5354 63.0288ZM28.3917 61.1801L29.0956 60.3505L29.0939 60.3491L28.3917 61.1801ZM26.8936 57.7802L27.9816 57.7856V57.7802H26.8936ZM27.4142 55.4002L26.4379 54.92L26.4372 54.9215L27.4142 55.4002ZM30.7504 52.5527L31.1364 53.57L31.1404 53.5684L30.7504 52.5527ZM41.439 52.2765L42.5237 52.361L42.5952 51.4423L41.7008 51.2205L41.439 52.2765ZM41.1733 55.6871L40.9707 56.756L42.1638 56.9821L42.258 55.7715L41.1733 55.6871ZM38.2728 54.291C36.64 54.291 35.2675 54.4654 34.2649 54.9063C33.7511 55.1322 33.2837 55.4501 32.9433 55.8991C32.5923 56.3621 32.4249 56.9017 32.4249 57.472H34.6008C34.6008 57.3447 34.6317 57.2738 34.6774 57.2136C34.7337 57.1393 34.8612 57.0211 35.1408 56.8982C35.7248 56.6414 36.7323 56.4669 38.2728 56.4669V54.291ZM32.4249 57.472C32.4249 58.5916 32.9267 59.5149 33.8644 60.126L35.0525 58.303C34.7294 58.0925 34.6008 57.8541 34.6008 57.472H32.4249ZM33.8763 60.1337C34.7653 60.6967 35.9375 60.9081 37.2528 60.9081V58.7321C36.1172 58.7321 35.4266 58.5398 35.0406 58.2954L33.8763 60.1337ZM37.2528 60.9081C38.5439 60.9081 39.8054 60.8042 41.0366 60.5953L40.6726 58.45C39.5663 58.6377 38.4267 58.7321 37.2528 58.7321V60.9081ZM39.7669 59.5468L39.8413 62.8936L42.0167 62.8453L41.9423 59.4985L39.7669 59.5468ZM40.6521 61.8173C39.4082 62.1446 38.0363 62.3127 36.5303 62.3127V64.4887C38.1976 64.4887 39.7581 64.3026 41.2059 63.9216L40.6521 61.8173ZM36.5303 62.3127C34.9935 62.3127 33.7497 62.192 32.7795 61.9686L32.2912 64.0891C33.4743 64.3615 34.8938 64.4887 36.5303 64.4887V62.3127ZM32.7729 61.9671C31.7344 61.7348 30.9844 61.488 30.4841 61.2437L29.5292 63.199C30.2473 63.5496 31.183 63.8412 32.2979 64.0906L32.7729 61.9671ZM30.4841 61.2437C29.9478 60.9818 29.4872 60.6828 29.0956 60.3505L27.6878 62.0097C28.2311 62.4707 28.8472 62.8659 29.5292 63.199L30.4841 61.2437ZM29.0939 60.3491C28.3547 59.7244 27.9759 58.9079 27.9816 57.7856L25.8056 57.7747C25.7971 59.4857 26.4171 60.9359 27.6894 62.0111L29.0939 60.3491ZM27.9816 57.7802C27.9816 57.0488 28.1251 56.422 28.3912 55.8789L26.4372 54.9215C26.0092 55.795 25.8056 56.7549 25.8056 57.7802H27.9816ZM28.3905 55.8803C28.8854 54.874 29.7594 54.0925 31.1364 53.57L30.3644 51.5355C28.5681 52.2172 27.2179 53.334 26.4379 54.92L28.3905 55.8803ZM31.1404 53.5684C32.5879 53.0127 34.2033 52.727 35.9991 52.727V50.551C33.9699 50.551 32.0861 50.8745 30.3604 51.537L31.1404 53.5684ZM35.9991 52.727C37.8305 52.727 39.5554 52.9304 41.1771 53.3325L41.7008 51.2205C39.8942 50.7726 37.9925 50.551 35.9991 50.551V52.727ZM40.3543 52.192L40.0886 55.6026L42.258 55.7715L42.5237 52.361L40.3543 52.192ZM41.376 54.6181C40.244 54.4036 39.2073 54.291 38.2728 54.291V56.4669C39.0382 56.4669 39.9352 56.5597 40.9707 56.756L41.376 54.6181ZM51.9915 56.3564L51.9855 57.4444L53.0912 57.4505L53.0795 56.3449L51.9915 56.3564ZM51.524 54.9433L50.7837 55.7407L50.7931 55.7492L51.524 54.9433ZM48.8147 55.0496L49.5682 55.8345L49.5762 55.8266L48.8147 55.0496ZM48.156 56.3352L47.0824 56.1587L46.8757 57.4161L48.1499 57.4231L48.156 56.3352ZM56.1565 62.1363L56.8137 63.0034L57.2048 62.7069L57.2414 62.2175L56.1565 62.1363ZM53.8084 63.0076L53.5745 61.945L53.5681 61.9464L53.8084 63.0076ZM45.6485 62.7101L45.2775 63.7329L45.2864 63.736L45.6485 62.7101ZM43.7892 61.722L43.1139 62.575L43.1204 62.5801L43.127 62.5852L43.7892 61.722ZM42.5461 60.1601L41.5708 60.6424L41.573 60.6467L42.5461 60.1601ZM43.821 53.5621L44.5446 54.3747L44.5451 54.3742L43.821 53.5621ZM53.7659 52.3827L54.201 51.3855L54.1908 51.3812L53.7659 52.3827ZM56.2627 54.6777L55.2842 55.1534L55.2872 55.1594L56.2627 54.6777ZM56.6877 56.5796L57.7728 56.6585L57.7757 56.6191V56.5796H56.6877ZM56.5602 58.3326L56.5548 59.4206L57.5716 59.4256L57.6453 58.4116L56.5602 58.3326ZM47.9435 58.2901L47.9488 57.2022L46.5295 57.1952L46.8915 58.5676L47.9435 58.2901ZM49.176 59.8095L48.6406 60.7567L48.645 60.7591L49.176 59.8095ZM55.7846 59.4376V58.3496H55.5672L55.3665 58.4332L55.7846 59.4376ZM56.3583 59.4376L57.4433 59.5188L57.5307 58.3496H56.3583V59.4376ZM53.0795 56.3449C53.0711 55.5579 52.8902 54.7136 52.255 54.1374L50.7931 55.7492C50.7803 55.7376 50.8053 55.7515 50.8364 55.8455C50.8694 55.9451 50.9009 56.1115 50.9036 56.368L53.0795 56.3449ZM52.2644 54.1461C51.6934 53.6159 50.9443 53.441 50.2066 53.441V55.6169C50.6305 55.6169 50.7597 55.7183 50.7837 55.7406L52.2644 54.1461ZM50.2066 53.441C49.3963 53.441 48.6428 53.6948 48.0532 54.2725L49.5762 55.8266C49.695 55.7102 49.8693 55.6169 50.2066 55.6169V53.441ZM48.0613 54.2647C47.5257 54.7789 47.2028 55.4262 47.0824 56.1587L49.2295 56.5117C49.2791 56.21 49.3954 56.0003 49.5682 55.8344L48.0613 54.2647ZM48.1499 57.4231L51.9855 57.4444L51.9976 55.2685L48.162 55.2472L48.1499 57.4231ZM55.4992 61.2693C55.2607 61.4501 54.679 61.7019 53.5745 61.945L54.0423 64.0701C55.1902 63.8174 56.1739 63.4884 56.8137 63.0034L55.4992 61.2693ZM53.5681 61.9464C52.514 62.1851 51.5003 62.3021 50.5253 62.3021V64.478C51.6753 64.478 52.8503 64.34 54.0486 64.0687L53.5681 61.9464ZM50.5253 62.3021C49.5001 62.3021 48.6556 62.2537 47.9824 62.1631L47.6921 64.3196C48.4921 64.4273 49.4397 64.478 50.5253 64.478V62.3021ZM47.9824 62.1631C47.3219 62.0741 46.6649 61.9151 46.0106 61.6841L45.2864 63.736C46.0771 64.0151 46.8793 64.2102 47.6921 64.3196L47.9824 62.1631ZM46.0195 61.6873C45.3834 61.4566 44.8659 61.1767 44.4514 60.8587L43.127 62.5852C43.7466 63.0605 44.4686 63.4394 45.2775 63.7328L46.0195 61.6873ZM44.4645 60.8689C44.091 60.5732 43.7736 60.1824 43.5192 59.6736L41.573 60.6467C41.956 61.4128 42.4674 62.0632 43.1139 62.575L44.4645 60.8689ZM43.5213 59.6778C43.2924 59.215 43.1559 58.6192 43.1559 57.8545H40.98C40.98 58.8748 41.1622 59.8161 41.5708 60.6424L43.5213 59.6778ZM43.1559 57.8545C43.1559 57.0891 43.2939 56.4132 43.5548 55.8121L41.5586 54.9458C41.1679 55.8463 40.98 56.8208 40.98 57.8545H43.1559ZM43.5548 55.8121C43.829 55.18 44.165 54.7126 44.5446 54.3747L43.0975 52.7495C42.4429 53.3324 41.936 54.0762 41.5586 54.9458L43.5548 55.8121ZM44.5451 54.3742C45.7144 53.3316 47.4982 52.727 50.0684 52.727V50.551C47.1847 50.551 44.8035 51.2285 43.097 52.75L44.5451 54.3742ZM50.0684 52.727C51.2218 52.727 52.3095 52.9467 53.341 53.3843L54.1908 51.3812C52.8848 50.8271 51.5075 50.551 50.0684 50.551V52.727ZM53.3307 53.3799C54.2935 53.8001 54.9158 54.3955 55.2842 55.1534L57.2412 54.2021C56.618 52.9199 55.5757 51.9854 54.201 51.3856L53.3307 53.3799ZM55.2872 55.1594C55.4904 55.5709 55.5997 56.038 55.5997 56.5796H57.7757C57.7757 55.7327 57.6017 54.932 57.2382 54.196L55.2872 55.1594ZM55.6026 56.5006L55.4751 58.2537L57.6453 58.4116L57.7728 56.6585L55.6026 56.5006ZM56.5656 57.2447L47.9488 57.2022L47.9381 59.3781L56.5548 59.4206L56.5656 57.2447ZM46.8915 58.5676C47.1458 59.5321 47.7679 60.2634 48.6406 60.7567L49.7113 58.8623C49.2807 58.619 49.0811 58.3374 48.9955 58.0127L46.8915 58.5676ZM48.645 60.7591C49.5274 61.2525 50.6309 61.45 51.864 61.45V59.274C50.8306 59.274 50.142 59.1031 49.7069 58.8599L48.645 60.7591ZM51.864 61.45C53.1873 61.45 54.6407 61.0923 56.2027 60.4421L55.3665 58.4332C53.9677 59.0155 52.8074 59.274 51.864 59.274V61.45ZM55.7846 60.5256H56.3583V58.3496H55.7846V60.5256ZM55.2734 59.3565L55.0715 62.0552L57.2414 62.2175L57.4433 59.5188L55.2734 59.3565Z"
         fill="#F8D24E" />
   </symbol>
   <symbol id="telegram" width="34" height="34" viewBox="0 0 34 34" fill="none">
      <g clip-path="url(#clip0_105_10829)">
         <circle cx="17" cy="17" r="17" fill="#F8D24E" />
         <path
            d="M13.6713 19.5238L13.3338 23.9538C13.8167 23.9538 14.0258 23.7602 14.2765 23.5278L16.5401 21.5088L21.2305 24.7146C22.0907 25.162 22.6968 24.9264 22.9289 23.976L26.0076 10.5116L26.0085 10.5108C26.2813 9.32401 25.5486 8.85991 24.7105 9.15106L6.61358 15.6175C5.3785 16.0649 5.3972 16.7075 6.40362 16.9987L11.0303 18.3418L21.7771 12.0658C22.2829 11.7532 22.7427 11.9261 22.3645 12.2387L13.6713 19.5238Z"
            fill="#84A178" />
      </g>
      <defs>
         <clipPath>
            <rect width="34" height="34" fill="white" />
         </clipPath>
      </defs>
   </symbol>
</svg>