<svg width="28" height="28" viewBox="0 0 28 28" fill="none" xmlns="http://www.w3.org/2000/svg">
<path d="M26.1601 12.08L2.94007 0.46999C2.62682 0.324859 2.28224 0.260379 1.93771 0.282422C1.59318 0.304465 1.25963 0.41233 0.967429 0.596198C0.675228 0.780066 0.433654 1.0341 0.2647 1.33517C0.0957449 1.63624 0.00477479 1.97479 7.02113e-05 2.31999V25.53C-0.00285516 25.8843 0.08568 26.2335 0.257119 26.5436C0.428558 26.8537 0.677102 27.1144 0.978729 27.3004C1.28036 27.4864 1.62487 27.5915 1.97896 27.6054C2.33305 27.6193 2.68475 27.5417 3.00007 27.38L26.1601 15.77C26.5031 15.5978 26.7916 15.3336 26.9931 15.0069C27.1947 14.6802 27.3014 14.3039 27.3014 13.92C27.3014 13.5361 27.1947 13.1598 26.9931 12.8331C26.7916 12.5064 26.5031 12.2422 26.1601 12.07V12.08Z" fill="#FCFCFC"/>
</svg>
